<svg xmlns="http://www.w3.org/2000/svg" width="40" height="40" viewBox="0 0 40 40"><g><g><path fill="#14ba83" d="M30.156 14.844a1.562 1.562 0 1 1 0 3.124 1.562 1.562 0 0 1 0-3.124zM40 9.374v8.907a1.563 1.563 0 0 1-3.125 0V9.375A3.129 3.129 0 0 0 33.75 6.25h-2.031v1.562a1.562 1.562 0 0 1-3.125 0V6.25h-7.11v1.562a1.562 1.562 0 0 1-3.125 0V6.25h-7.03v1.562a1.562 1.562 0 0 1-3.126 0V6.25H6.25a3.129 3.129 0 0 0-3.125 3.125V33.75a3.128 3.128 0 0 0 3.125 3.125h11.953a1.562 1.562 0 1 1 0 3.125H6.25A6.257 6.257 0 0 1 0 33.75V9.375a6.257 6.257 0 0 1 6.25-6.25h1.953V1.562a1.562 1.562 0 1 1 3.125 0v1.563h7.031V1.562a1.562 1.562 0 1 1 3.125 0v1.563h7.11V1.562a1.562 1.562 0 1 1 3.125 0v1.563h2.03A6.257 6.257 0 0 1 40 9.375zm0 21.172C40 35.76 35.76 40 30.547 40c-5.213 0-9.453-4.24-9.453-9.453 0-5.213 4.24-9.454 9.453-9.454 5.212 0 9.453 4.241 9.453 9.454zm-3.125 0a6.335 6.335 0 0 0-6.328-6.328 6.335 6.335 0 0 0-6.328 6.329 6.335 6.335 0 0 0 6.328 6.328 6.335 6.335 0 0 0 6.328-6.328zm-2.5 0c0 .864-.7 1.563-1.563 1.563h-2.265c-.863 0-1.563-.7-1.563-1.562v-3.203a1.562 1.562 0 1 1 3.125 0v1.64h.703c.863 0 1.563.7 1.563 1.563zM23.359 14.845a1.562 1.562 0 1 1 0 3.124 1.562 1.562 0 0 1 0-3.124zm-6.797 6.796a1.562 1.562 0 1 1 0 3.125 1.562 1.562 0 0 1 0-3.125zm-6.796-6.796a1.562 1.562 0 1 1 0 3.124 1.562 1.562 0 0 1 0-3.124zm0 6.796a1.562 1.562 0 1 1 0 3.125 1.562 1.562 0 0 1 0-3.125zm0 6.797a1.562 1.562 0 1 1 0 3.125 1.562 1.562 0 0 1 0-3.125zm6.796 0a1.562 1.562 0 1 1 0 3.125 1.562 1.562 0 0 1 0-3.125zm0-13.593a1.562 1.562 0 1 1 0 3.124 1.562 1.562 0 0 1 0-3.124z"/></g></g></svg>