<svg xmlns="http://www.w3.org/2000/svg" width="40" height="40" viewBox="0 0 40 40"><g><g><path fill="#14ba83" d="M40 26.198a1.56 1.56 0 1 1-3.119 0c0-4.984-3.184-8.866-6.546-11.575 2.171 3.31 3.271 6.7 3.271 10.094a1.56 1.56 0 0 1-3.119 0c0-4.83-2.8-9.714-8.322-14.519l-.072-.062h-5.02c-.893.381-3.981 1.782-7.015 4.144-4.604 3.584-6.94 7.595-6.94 11.918 0 6.433 3.717 10.523 9.7 10.679l14.026.004c3.518-.08 6.41-1.479 8.143-3.942a1.56 1.56 0 0 1 2.55 1.795c-2.32 3.298-6.1 5.168-10.643 5.265h-.033l-14.063-.003-.038-.001c-3.73-.092-6.907-1.407-9.188-3.805C1.235 33.732 0 30.277 0 26.198c0-2.973.884-5.845 2.626-8.535 1.357-2.094 3.235-4.078 5.58-5.895 2.573-1.992 5.127-3.337 6.634-4.048l-2.104-5.443c-.069-.18-.104-.37-.104-.562v-.156A1.56 1.56 0 0 1 14.742.1c3.51 1.33 6.925 1.329 10.437 0A1.56 1.56 0 0 1 27.29 1.56v.156c0 .192-.035.383-.104.562l-2.103 5.44c1.513.711 4.082 2.056 6.668 4.05 2.358 1.816 4.245 3.798 5.608 5.893 1.753 2.69 2.64 5.563 2.64 8.538zM23.218 3.893a17 17 0 0 1-6.514 0l1.207 3.124h4.1zM18.4 32.826v-.86c-2.111-.074-3.744-1.723-3.744-3.818a1.56 1.56 0 1 1 3.118 0c0 .46.388.702.772.702h2.322c.727 0 1.276-.511 1.276-1.19v-.382c0-.693-.56-1.235-1.276-1.235h-1.429c-2.419 0-4.386-1.994-4.386-4.445v-.569c0-1.178.46-2.277 1.295-3.094a4.355 4.355 0 0 1 2.052-1.129V15.75a1.56 1.56 0 1 1 3.119 0v1.003c1.818.334 3.198 1.894 3.198 3.762a1.56 1.56 0 1 1-3.119 0c0-.444-.41-.71-.808-.71h-1.35c-.723 0-1.268.526-1.268 1.224v.57c0 .718.58 1.325 1.267 1.325h1.43c1.17 0 2.27.445 3.095 1.254a4.304 4.304 0 0 1 1.299 3.1v.382c0 2.199-1.599 3.963-3.744 4.263v.903a1.56 1.56 0 1 1-3.12 0z"/></g></g></svg>