<svg xmlns="http://www.w3.org/2000/svg" width="40" height="40" viewBox="0 0 40 40"><g><g><path fill="#14ba83" d="M.146 22.464c-.1-.812-.15-1.64-.15-2.465 0-5.343 2.08-10.366 5.857-14.145a19.865 19.865 0 0 1 14.14-5.86 19.865 19.865 0 0 1 14.142 5.86A19.877 19.877 0 0 1 39.992 20c0 .824-.05 1.653-.15 2.465a1.563 1.563 0 0 1-3.102-.382c.021-.172.04-.346.056-.52h-2.585a1.563 1.563 0 0 1 0-3.125h2.583a16.782 16.782 0 0 0-3.022-8.171 30.67 30.67 0 0 1-4.126 1.102c.472 2.124.748 4.449.804 6.876a1.563 1.563 0 0 1-1.525 1.599h-.037a1.562 1.562 0 0 1-1.562-1.526c-.053-2.302-.317-4.487-.767-6.452a52.17 52.17 0 0 1-5.003.376v2.601a1.562 1.562 0 1 1-3.125 0v-2.6a52.112 52.112 0 0 1-4.938-.368c-.43 1.916-.695 4.066-.752 6.367a1.563 1.563 0 1 1-3.124-.077c.06-2.395.329-4.687.786-6.782a30.879 30.879 0 0 1-4.187-1.115 16.78 16.78 0 0 0-3.023 8.17h2.193a1.563 1.563 0 0 1 0 3.126H3.192c.016.174.034.347.055.52a1.563 1.563 0 1 1-3.101.38zm11.093-14.1a20.016 20.016 0 0 1 1.21-2.837c.158-.297.32-.583.488-.857A16.949 16.949 0 0 0 8.45 7.702c.867.252 1.801.474 2.79.663zm7.192.75V3.478c-1.623.754-3.031 2.667-4.043 5.358 1.299.145 2.654.24 4.043.28zm7.216-.285a16.353 16.353 0 0 0-.82-1.814c-.592-1.114-1.703-2.805-3.27-3.536v5.636a49.74 49.74 0 0 0 4.09-.286zm3.15-.475a30.53 30.53 0 0 0 2.74-.653 16.936 16.936 0 0 0-4.442-3.01c.169.274.333.559.49.855.455.855.86 1.796 1.213 2.808zm11.14 28.521a2.594 2.594 0 0 1-.529 2.174 2.578 2.578 0 0 1-2.008.955h-9.97l-.05-.002-.087.002H12.646l-.057-.001-.03.001h-9.97a2.58 2.58 0 0 1-2.01-.955 2.594 2.594 0 0 1-.529-2.174 7.66 7.66 0 0 1 3.549-4.99 4.897 4.897 0 0 1-.947-2.899 4.928 4.928 0 0 1 4.921-4.923 4.928 4.928 0 0 1 4.921 4.923c0 1.08-.35 2.08-.943 2.893l.074.045a10.551 10.551 0 0 1 3.865-3.1 5.835 5.835 0 0 1-1.355-3.745 5.866 5.866 0 0 1 5.859-5.86 5.866 5.866 0 0 1 5.859 5.86c0 1.422-.51 2.728-1.355 3.744a10.567 10.567 0 0 1 3.864 3.1l.074-.044a4.896 4.896 0 0 1-.943-2.893 4.928 4.928 0 0 1 4.922-4.923 4.928 4.928 0 0 1 4.921 4.923 4.897 4.897 0 0 1-.947 2.9 7.66 7.66 0 0 1 3.549 4.99zm-9.319-7.889c0 .991.806 1.797 1.797 1.797.99 0 1.797-.806 1.797-1.797 0-.99-.807-1.797-1.797-1.797-.99 0-1.797.806-1.797 1.797zm-10.624-1.172a2.738 2.738 0 0 0 2.734-2.735 2.738 2.738 0 0 0-2.734-2.735 2.738 2.738 0 0 0-2.734 2.735 2.738 2.738 0 0 0 2.734 2.735zm-7.311 9.065h14.604a.058.058 0 0 0 .015-.013c-.731-3.436-3.799-5.926-7.308-5.926-3.514 0-6.585 2.496-7.311 5.939zm-6.907-7.893c0 .991.806 1.797 1.797 1.797.99 0 1.797-.806 1.797-1.797 0-.99-.806-1.797-1.797-1.797-.99 0-1.797.806-1.797 1.797zM3.29 36.88h6.264a3.16 3.16 0 0 1 .064-.612c.115-.552.274-1.091.474-1.614a4.488 4.488 0 0 0-2.478-.744h-.082a4.54 4.54 0 0 0-4.242 2.97zm33.407 0a4.54 4.54 0 0 0-4.242-2.97h-.081a4.49 4.49 0 0 0-2.478.744c.183.477.33.969.442 1.471.012.04.023.081.031.123.044.21.064.422.063.632z"/></g></g></svg>